<svg xmlns="http://www.w3.org/2000/svg" viewBox="0 0 40 40"><defs><style>.a{fill:#e6e7e8;}.b{fill:#58595b;}</style></defs><title>delete</title><rect class="a" width="40" height="40"/><path class="b" d="M1103.07,5676.61h-1.53V5672h4.61l1-1.53h5.69l1,1.52h4.62v4.61h-1.54v0.14q0,6,0,12a0.28,0.28,0,0,1-.09.22l-1.38,1.42a0.24,0.24,0,0,1-.18.08h-10.57a0.19,0.19,0,0,1-.15-0.07l-1.4-1.44a0.27,0.27,0,0,1-.09-0.21q0-6,0-12v-0.15Zm1.53,0v0.1q0,6.05,0,12.11a0.09,0.09,0,0,0,.11.11h10.67v-12.32h-10.78Zm5.38-3.09h-6.82c-0.09,0-.11,0-0.11.11,0,0.44,0,.88,0,1.32,0,0.12,0,.12.12,0.12h13.63c0.09,0,.12,0,0.12-0.12,0-.43,0-0.87,0-1.3,0-.15,0-0.13-0.13-0.13H1110Z" transform="translate(-1090 -5660.47)"/><path class="b" d="M1113.84,5687.38h-1.52s0-.08,0-0.11q0-4.5,0-9c0-.12,0-0.12.12-0.12h1.3c0.08,0,.11,0,0.11.11q0,4.51,0,9S1113.84,5687.34,1113.84,5687.38Z" transform="translate(-1090 -5660.47)"/><path class="b" d="M1106.16,5687.38v-9.22h1.52v9.22h-1.52Z" transform="translate(-1090 -5660.47)"/><path class="b" d="M1109.24,5687.38v-9.22h1.52v9.22h-1.52Z" transform="translate(-1090 -5660.47)"/></svg>